REM DIRINDEX 1\2,1\3,1\4,1\5
REM DIRNAME cjc044,folder01,folder02,folder03,folder04
TITLE ""
FILE "1800_073.mp3" MP3
  TRACK 01 AUDIO
    TITLE "2:cjc044_1849"
    INDEX 01 00:00:00
  TRACK 02 AUDIO
    TITLE "0:"
    INDEX 01 00:01:13
  TRACK 03 AUDIO
    TITLE "3:cjc044_1850"
    INDEX 01 00:01:73
  TRACK 04 AUDIO
    TITLE "0:"
    INDEX 01 00:03:17
  TRACK 05 AUDIO
    TITLE "4:cjc044_1851"
    INDEX 01 00:03:66
  TRACK 06 AUDIO
    TITLE "0:"
    INDEX 01 00:05:16
  TRACK 07 AUDIO
    TITLE "5:cjc044_1852"
    INDEX 01 00:05:73
  TRACK 08 AUDIO
    TITLE "0:"
    INDEX 01 00:10:12
  TRACK 09 AUDIO
    TITLE "2:cjc044_1853"
    INDEX 01 00:11:72
  TRACK 10 AUDIO
    TITLE "0:"
    INDEX 01 00:13:06
  TRACK 11 AUDIO
    TITLE "3:cjc044_1854"
    INDEX 01 00:13:59
  TRACK 12 AUDIO
    TITLE "0:"
    INDEX 01 00:14:62
  TRACK 13 AUDIO
    TITLE "4:cjc044_1855"
    INDEX 01 00:15:44
  TRACK 14 AUDIO
    TITLE "0:"
    INDEX 01 00:16:55
  TRACK 15 AUDIO
    TITLE "5:cjc044_1856"
    INDEX 01 00:17:23
  TRACK 16 AUDIO
    TITLE "0:"
    INDEX 01 00:20:28
  TRACK 17 AUDIO
    TITLE "2:cjc044_1857"
    INDEX 01 00:21:74
  TRACK 18 AUDIO
    TITLE "0:"
    INDEX 01 00:23:10
  TRACK 19 AUDIO
    TITLE "3:cjc044_1858"
    INDEX 01 00:23:71
  TRACK 20 AUDIO
    TITLE "0:"
    INDEX 01 00:24:72
  TRACK 21 AUDIO
    TITLE "4:cjc044_1859"
    INDEX 01 00:25:58
  TRACK 22 AUDIO
    TITLE "0:"
    INDEX 01 00:26:69
  TRACK 23 AUDIO
    TITLE "5:cjc044_1860"
    INDEX 01 00:27:45
  TRACK 24 AUDIO
    TITLE "0:"
    INDEX 01 00:30:55
  TRACK 25 AUDIO
    TITLE "2:cjc044_1861"
    INDEX 01 00:32:41
  TRACK 26 AUDIO
    TITLE "0:"
    INDEX 01 00:33:46
  TRACK 27 AUDIO
    TITLE "3:cjc044_1862"
    INDEX 01 00:34:34
  TRACK 28 AUDIO
    TITLE "0:"
    INDEX 01 00:35:12
  TRACK 29 AUDIO
    TITLE "4:cjc044_1863"
    INDEX 01 00:35:70
  TRACK 30 AUDIO
    TITLE "0:"
    INDEX 01 00:37:07
  TRACK 31 AUDIO
    TITLE "5:cjc044_1864"
    INDEX 01 00:37:50
  TRACK 32 AUDIO
    TITLE "0:"
    INDEX 01 00:40:58
  TRACK 33 AUDIO
    TITLE "2:cjc044_1865"
    INDEX 01 00:42:43
  TRACK 34 AUDIO
    TITLE "0:"
    INDEX 01 00:43:58
  TRACK 35 AUDIO
    TITLE "3:cjc044_1866"
    INDEX 01 00:44:40
  TRACK 36 AUDIO
    TITLE "0:"
    INDEX 01 00:46:13
  TRACK 37 AUDIO
    TITLE "4:cjc044_1867"
    INDEX 01 00:46:72
  TRACK 38 AUDIO
    TITLE "0:"
    INDEX 01 00:48:10
  TRACK 39 AUDIO
    TITLE "5:cjc044_1868"
    INDEX 01 00:48:67
  TRACK 40 AUDIO
    TITLE "0:"
    INDEX 01 00:52:10
  TRACK 41 AUDIO
    TITLE "2:cjc044_1869"
    INDEX 01 00:53:68
  TRACK 42 AUDIO
    TITLE "0:"
    INDEX 01 00:55:03
  TRACK 43 AUDIO
    TITLE "3:cjc044_1870"
    INDEX 01 00:55:59
  TRACK 44 AUDIO
    TITLE "0:"
    INDEX 01 00:56:74
  TRACK 45 AUDIO
    TITLE "4:cjc044_1871"
    INDEX 01 00:57:56
  TRACK 46 AUDIO
    TITLE "0:"
    INDEX 01 00:58:69
  TRACK 47 AUDIO
    TITLE "5:cjc044_1872"
    INDEX 01 00:59:43
  TRACK 48 AUDIO
    TITLE "0:"
    INDEX 01 01:02:46
  TRACK 49 AUDIO
    TITLE "2:cjc044_1873"
    INDEX 01 01:04:31
  TRACK 50 AUDIO
    TITLE "0:"
    INDEX 01 01:05:58
  TRACK 51 AUDIO
    TITLE "3:cjc044_1874"
    INDEX 01 01:06:40
  TRACK 52 AUDIO
    TITLE "0:"
    INDEX 01 01:07:64
  TRACK 53 AUDIO
    TITLE "4:cjc044_1875"
    INDEX 01 01:08:48
  TRACK 54 AUDIO
    TITLE "0:"
    INDEX 01 01:10:04
  TRACK 55 AUDIO
    TITLE "5:cjc044_1876"
    INDEX 01 01:10:53
  TRACK 56 AUDIO
    TITLE "0:"
    INDEX 01 01:13:51
  TRACK 57 AUDIO
    TITLE "2:cjc044_1877"
    INDEX 01 01:15:37
  TRACK 58 AUDIO
    TITLE "0:"
    INDEX 01 01:16:54
  TRACK 59 AUDIO
    TITLE "3:cjc044_1878"
    INDEX 01 01:17:41
  TRACK 60 AUDIO
    TITLE "0:"
    INDEX 01 01:19:30
  TRACK 61 AUDIO
    TITLE "4:cjc044_1879"
    INDEX 01 01:20:12
  TRACK 62 AUDIO
    TITLE "0:"
    INDEX 01 01:21:33
  TRACK 63 AUDIO
    TITLE "5:cjc044_1880"
    INDEX 01 01:22:05
  TRACK 64 AUDIO
    TITLE "0:"
    INDEX 01 01:25:62
